<svg width="250" height="250" viewBox="0 0 250 250" fill="none" xmlns="http://www.w3.org/2000/svg">
	<g clip-path="url(#clip0_2_15)">
		<rect width="250" height="250" rx="125" fill="white" />
		<g filter="url(#filter0_f_2_15)">
			<path d="M150.853 275.977C89.7142 265.691 103.066 146.066 108.758 119.616C104.302 107.56 99.4178 85.3224 97.3806 47.8562C91.7004 -56.6126 280.166 51.521 301.353 103.054C313.868 138.06 216.292 286.988 150.853 275.977Z" fill="#F039BD" />
			<path d="M255.542 45.2228C288.442 102.852 212.287 91.3475 199.211 96.2223C203.609 65.4206 196.982 19.9752 119.704 90.5019C42.4254 161.029 -8.11806 34.3036 18.3648 -14.7183C37.5423 -46.5661 222.642 -12.4065 255.542 45.2228Z" fill="#F0394F" />
			<path d="M12.748 121.587C66.9125 83.25 131.644 160.955 137.765 173.496C106.682 172.109 18.0807 142.218 95.7742 212.287C173.468 282.356 86.4268 307.7 35.0661 286.1C1.50758 270.103 -41.4164 159.925 12.748 121.587Z" fill="#396CF0" />
			<path d="M4.24466 193.096C-56.3311 166.002 -22.4167 70.7221 -14.74 59.0683C-0.10655 86.5264 19.2845 178.001 40.0269 75.4551C60.7693 -27.0913 126.903 34.9146 134.466 90.1169C137.788 127.144 64.8204 220.191 4.24466 193.096Z" fill="#F04F39" />
			<path d="M77.4327 93.1261C131.597 54.7888 196.329 132.494 202.45 145.035C171.367 143.647 82.7653 113.756 160.459 183.826C238.152 253.895 151.111 279.239 99.7507 257.638C66.1922 241.642 23.2682 131.463 77.4327 93.1261Z" fill="#757575" />
			<path d="M77.4327 93.1261C131.597 54.7888 196.329 132.494 202.45 145.035C171.367 143.647 82.7653 113.756 160.459 183.826C238.152 253.895 151.111 279.239 99.7507 257.638C66.1922 241.642 23.2682 131.463 77.4327 93.1261Z" fill="#7F39F0" />
			<path d="M-16.2561 69.2219C11.899 9.07323 41.8282 9.87982 53.2733 17.8017C25.6618 31.917 -4.1529 65.8515 97.4803 88.6665C199.114 111.482 114.362 130.148 59.2821 136.63C22.3713 139.222 -44.4113 129.371 -16.2561 69.2219Z" fill="#F07B39" />
		</g>
		<path d="M133.219 59.3025L189.423 125.983L57.5795 180.484L133.219 59.3025Z" fill="#D9D9D9" />
	</g>
	<defs>
		<filter id="filter0_f_2_15" x="-107.131" y="-102.923" width="485.578" height="472.504" filterUnits="userSpaceOnUse" color-interpolation-filters="sRGB">
			<feFlood flood-opacity="0" result="BackgroundImageFix" />
			<feBlend mode="normal" in="SourceGraphic" in2="BackgroundImageFix" result="shape" />
			<feGaussianBlur stdDeviation="38" result="effect1_foregroundBlur_2_15" />
		</filter>
		<clipPath id="clip0_2_15">
			<rect width="250" height="250" rx="125" fill="white" />
		</clipPath>
	</defs>
</svg>
